<?xml version="1.0" encoding="utf-8"?>
<!-- Generator: Adobe Illustrator 22.1.0, SVG Export Plug-In . SVG Version: 6.00 Build 0)  -->
<svg version="1.1" id="new" xmlns="http://www.w3.org/2000/svg" xmlns:xlink="http://www.w3.org/1999/xlink" x="0px" y="0px"
	 width="1200px" height="200px" viewBox="0 0 1200 200" style="enable-background:new 0 0 1200 200;" xml:space="preserve">
<style type="text/css">
	.st0{fill:#1E88E5;}
	.st1{fill:#FFFFFF;}
	.st2{fill:none;}
	
		.st3{fill-rule:evenodd;clip-rule:evenodd;fill:none;stroke:#FFFFFF;stroke-linecap:round;stroke-linejoin:round;stroke-miterlimit:10;}
	.st4{fill:#0B5983;}
	.st5{fill:#135589;}
	.st6{fill:#3B5998;}
	.st7{fill:#00AF74;}
	.st8{fill:#EC412E;}
	.st9{fill:#222222;}
	.st10{fill:#999999;}
	.st11{fill:#28AAE1;}
	.st12{fill:#FF0000;}
	.st13{fill:#00ADF3;}
	.st14{fill:#8F8F8F;}
	.st15{fill:#3FA9F5;}
	.st16{fill-rule:evenodd;clip-rule:evenodd;fill:#1E88E5;}
	.st17{fill-rule:evenodd;clip-rule:evenodd;fill:#FFFFFF;}
	.st18{fill:#C7CDD1;}
	.st19{fill:#94C7ED;}
	.st20{fill:none;stroke:#1E88E5;}
</style>
<polygon class="st0" points="271,186.1 260.5,175.5 262.6,173.4 270.9,181.7 287.3,163.9 289.5,166 "/>
<g>
	<rect x="211" y="173" transform="matrix(0.7071 -0.7071 0.7071 0.7071 -57.8428 210.3554)" class="st1" width="28" height="4"/>
	<rect x="223" y="161" transform="matrix(0.7071 -0.7071 0.7071 0.7071 -57.8428 210.3552)" class="st1" width="4" height="28"/>
</g>
<g id="background">
	<rect x="297.5" y="174.5" class="st2" width="32" height="32"/>
</g>
<g>
	<line class="st3" x1="164.2" y1="164.7" x2="184.8" y2="185.3"/>
	<line class="st3" x1="184.8" y1="164.7" x2="164.2" y2="185.3"/>
</g>
<path class="st1" d="M37,60H13c-1.7,0-3,1.3-3,3v24c0,1.7,1.3,3,3,3h13.1V76.5H22v-3.6h4.1v-1.3c-0.1-1.1,0.1-2.2,0.5-3.2
	c0.4-0.8,1-1.4,1.8-1.7c1-0.5,2.1-0.7,3.2-0.7c1.3,0,2.6,0.2,3.9,0.6l-0.6,3.1c-0.7-0.2-1.4-0.3-2.2-0.3c-0.5-0.1-1.1,0.1-1.5,0.4
	c-0.4,0.5-0.5,1.1-0.4,1.8v1.3h5v3.6h-5V90H37c1.7,0,3-1.3,3-3V63C40,61.3,38.7,60,37,60z"/>
<g id="Group_756" transform="translate(-5023 -10102)">
	<g id="Group_755" transform="translate(9214 8858)">
		<path id="Path_57" class="st0" d="M-3662.1,1419l-3.9,7h2.1l3.9-7l-3.9-7h-2.1L-3662.1,1419z"/>
		<path id="Path_58" class="st0" d="M-3668.1,1419l-3.9,7h2.1l3.9-7l-3.9-7h-2.1L-3668.1,1419z"/>
	</g>
</g>
<g id="Group_756_1_" transform="translate(-5023 -10102)">
	<g id="Group_755_1_" transform="translate(9214 8858)">
		<path id="Path_57_1_" class="st1" d="M-3612.1,1419l-3.9,7h2.1l3.9-7l-3.9-7h-2.1L-3612.1,1419z"/>
		<path id="Path_58_1_" class="st1" d="M-3618.1,1419l-3.9,7h2.1l3.9-7l-3.9-7h-2.1L-3618.1,1419z"/>
	</g>
</g>
<g id="in_1_" transform="translate(4509 -325)">
	<path id="Path_90_1_" class="st4" d="M-4472,435h-24c-1.7,0-3,1.3-3,3v24c0,1.7,1.3,3,3,3h24c1.7,0,3-1.3,3-3v-24
		C-4469,436.3-4470.3,435-4472,435z"/>
	<rect id="Rectangle_210_1_" x="-4494.6" y="446.6" class="st1" width="4.5" height="13.6"/>
	<ellipse id="Ellipse_8_1_" class="st1" cx="-4492.4" cy="442.4" rx="2.7" ry="2.5"/>
	<path id="Path_91_1_" class="st1" d="M-4473.8,460.1h-4.5v-6.9c0-1.5-0.4-3.5-2.2-3.5c-1.4,0-2.5,1.1-2.5,2.5c0,0.1,0,0.1,0,0.2
		v7.7h-4.5v-13.5h4.5v1.6c1-1.3,2.5-2.1,4.1-2c4,0,5.1,3.2,5.1,5.3V460.1z"/>
</g>
<path class="st1" d="M37,160H13c-1.7,0-3,1.3-3,3v24c0,1.7,1.3,3,3,3h24c1.7,0,3-1.3,3-3v-24C40,161.3,38.7,160,37,160z M18.9,185.1
	h-4.5v-13.6h4.5V185.1z M16.6,169.8c-1.5,0-2.7-1.1-2.7-2.5c0-1.4,1.2-2.5,2.7-2.5s2.7,1.1,2.7,2.5
	C19.3,168.7,18.1,169.8,16.6,169.8z M35.2,185.1h-4.5v-6.9c0-1.5-0.4-3.5-2.2-3.5c-1.4,0-2.5,1.1-2.5,2.5c0,0.1,0,0.1,0,0.2v7.7
	h-4.5v-13.5H26v1.6c1-1.3,2.5-2.1,4.1-2c4,0,5.1,3.2,5.1,5.3V185.1z"/>
<g id="ins" transform="translate(4459 -325)">
	<path id="Path_92" class="st5" d="M-4322,335h-24c-1.7,0-3,1.3-3,3v24c0,1.7,1.3,3,3,3h24c1.7,0,3-1.3,3-3v-24
		C-4319,336.3-4320.3,335-4322,335z"/>
	<path id="Path_93" class="st1" d="M-4329.5,338.7h-9c-3.7,0-6.8,3-6.8,6.8c0,0,0,0,0,0v9c0,3.7,3,6.8,6.8,6.8c0,0,0,0,0,0h9
		c3.7,0,6.8-3,6.8-6.8c0,0,0,0,0,0v-9C-4322.7,341.8-4325.7,338.7-4329.5,338.7C-4329.5,338.7-4329.5,338.7-4329.5,338.7z
		 M-4324.6,353.8c0,3.1-2.5,5.6-5.6,5.6h-7.5c-3.1,0-5.6-2.5-5.6-5.6v-7.5c0-3.1,2.5-5.6,5.6-5.6h7.5c3.1,0,5.6,2.5,5.6,5.6V353.8z"
		/>
	<path id="Path_94" class="st1" d="M-4334,344.1c-3.3,0-5.9,2.7-5.9,5.9s2.7,5.9,5.9,5.9s5.9-2.7,5.9-5.9l0,0
		C-4328.1,346.7-4330.7,344.1-4334,344.1z M-4334,353.9c-2.2,0-3.9-1.7-3.9-3.9s1.7-3.9,3.9-3.9s3.9,1.7,3.9,3.9
		C-4330.1,352.1-4331.8,353.9-4334,353.9C-4334,353.9-4334,353.9-4334,353.9z"/>
	<circle id="Ellipse_9" class="st1" cx="-4328.3" cy="343.8" r="1.3"/>
</g>
<g id="fb_1_" transform="translate(4359 -325)">
	<path id="Path_95_1_" class="st6" d="M-4346,335h24c1.7,0,3,1.3,3,3v24c0,1.7-1.3,3-3,3h-24c-1.7,0-3-1.3-3-3v-24
		C-4349,336.3-4347.7,335-4346,335z"/>
	<path id="Path_96_1_" class="st1" d="M-4337,347.9h4.1v-1.3c-0.1-1.1,0.1-2.2,0.5-3.2c0.4-0.8,1-1.4,1.8-1.7c1-0.5,2.1-0.7,3.2-0.7
		c1.3,0,2.7,0.2,3.9,0.6l-0.6,3.1c-0.7-0.2-1.5-0.3-2.2-0.3c-0.5-0.1-1.1,0.1-1.5,0.4c-0.4,0.5-0.5,1.1-0.5,1.8v1.3h5v3.6h-5V365
		h-4.7v-13.5h-4.1V347.9z"/>
</g>
<g id="fb_2_" transform="translate(4359 -325)">
	<path id="Path_95_2_" class="st6" d="M-4150,330h32c2.2,0,4,1.8,4,4v32c0,2.2-1.8,4-4,4h-32c-2.2,0-4-1.8-4-4v-32
		C-4154,331.8-4152.2,330-4150,330z"/>
	<path id="Path_96_2_" class="st1" d="M-4138,347.2h5.4v-1.7c-0.1-1.5,0.1-2.9,0.6-4.3c0.5-1,1.3-1.8,2.4-2.3
		c1.3-0.6,2.8-0.9,4.3-0.9c1.8,0,3.5,0.2,5.2,0.8l-0.8,4.2c-1-0.2-1.9-0.4-2.9-0.4c-0.7-0.1-1.4,0.1-2,0.6c-0.5,0.7-0.7,1.5-0.6,2.4
		v1.7h6.7v4.8h-6.7v18h-6.2v-18h-5.4V347.2z"/>
</g>
<path id="Path_76" class="st7" d="M631.7,125v-10h-13.3v10H615l10,10l10-10H631.7z"/>
<path id="Path_245" class="st8" d="M618.3,175v10h13.3v-10h3.3l-10-10l-10,10H618.3z"/>
<path id="Path_90-2" class="st0" d="M525,125l-3,5h3l3-5l-3-5h-3L525,125z"/>
<path id="Path_90-2_4_" class="st9" d="M775,125l-3,5h3l3-5l-3-5h-3L775,125z"/>
<path id="Path_90-2_5_" class="st9" d="M775,175l3-5h-3l-3,5l3,5h3L775,175z"/>
<path id="Path_90-2_3_" class="st0" d="M725,125l-5-3v3l5,3l5-3v-3L725,125z"/>
<path id="Path_90-2_1_" class="st1" d="M575,125l-3,5h3l3-5l-3-5h-3L575,125z"/>
<path id="Path_90-2_2_" class="st10" d="M675.8,125l-4.5,7.5h4.5l4.5-7.5l-4.5-7.5h-4.5L675.8,125z"/>
<g id="tw_1_" transform="translate(3348 -2935)">
	<path id="Path_87_1_" class="st1" d="M-3261,2945h-24c-1.7,0-3,1.3-3,3v24c0,1.7,1.3,3,3,3h24c1.7,0,3-1.3,3-3v-24
		C-3258,2946.3-3259.3,2945-3261,2945z"/>
	<g id="Group_90_1_" transform="translate(575 2543.026)">
		<path id="Path_67_1_" class="st11" d="M-3848.3,414.1c-1.7,0.8-6.5-1.6-8.7-4.2c-1,1-0.9,4.6,1.5,5.3c-0.7,0.4-1.5,0.3-2.1-0.1
			c0.5,2.6,1.3,3,3.3,4.1c-0.6,0-1.1,0-1.7,0c0.5,1.6,2,2.7,3.7,2.9c-2,2.4-5.7,1.9-5.7,1.9c1.8,1.2,3.9,1.8,6,1.9
			c9.5,0,12-9.3,12-10.9c0-0.6-0.1-1.2-0.2-1.8c0.9-0.6,1.6-1.3,2.2-2.2c-0.7,0.3-1.5,0.6-2.3,0.7c0.7-0.7,1.3-1.6,1.7-2.5
			c-0.8,0.6-1.7,1-2.6,1.2c-0.8-1.1-2.1-1.7-3.4-1.5C-3848.8,409.2-3848.3,414.1-3848.3,414.1z"/>
	</g>
</g>
<g>
	<path class="st1" d="M128.8,65.6h-7.5c-3.1,0-5.6,2.5-5.6,5.6v7.5c0,3.1,2.5,5.6,5.6,5.6h7.5c3.1,0,5.6-2.5,5.6-5.6v-7.5
		C134.4,68.2,131.8,65.6,128.8,65.6z M124.9,80.9c-3.2,0-5.8-2.6-5.8-5.8s2.6-5.8,5.8-5.8c3.2,0,5.8,2.6,5.8,5.8
		C130.7,78.3,128.1,80.9,124.9,80.9z M130.7,70c-0.7,0-1.3-0.6-1.3-1.3c0-0.7,0.6-1.3,1.3-1.3s1.3,0.6,1.3,1.3
		C132,69.5,131.4,70,130.7,70z"/>
	<path class="st1" d="M124.9,71.3c-2.1,0-3.8,1.7-3.8,3.8s1.7,3.8,3.8,3.8c0,0,0,0,0,0c2.1,0,3.8-1.7,3.8-3.8
		C128.7,73,127,71.3,124.9,71.3z"/>
	<path class="st1" d="M137,60h-24c-1.7,0-3,1.3-3,3v24c0,1.7,1.3,3,3,3h24c1.7,0,3-1.3,3-3V63C140,61.3,138.7,60,137,60z
		 M136.3,79.5C136.3,79.5,136.3,79.5,136.3,79.5c0,3.8-3,6.8-6.8,6.8h-9c0,0,0,0,0,0c-3.7,0-6.8-3-6.8-6.8v-9c0,0,0,0,0,0
		c0-3.7,3-6.8,6.8-6.8h9c0,0,0,0,0,0c3.7,0,6.8,3,6.8,6.8V79.5z"/>
</g>
<path class="st1" d="M87,60H63c-1.7,0-3,1.3-3,3v24c0,1.7,1.3,3,3,3h24c1.7,0,3-1.3,3-3V63C90,61.3,88.7,60,87,60z M82.8,71.2
	c0.1,0.6,0.2,1.2,0.2,1.8c0,1.5-2.5,10.9-12,10.9c-2.1,0-4.2-0.7-6-1.9c0,0,3.7,0.5,5.7-1.9C69,80,67.5,78.9,67,77.3
	c0.6,0,1.1,0,1.7,0c-2-1.1-2.8-1.5-3.3-4.1c0.6,0.5,1.4,0.5,2.1,0.1C65.2,72.5,65.1,69,66,68c2.1,2.6,7,5,8.7,4.2
	c0,0-0.5-4.9,3.7-5.1c1.3-0.1,2.6,0.4,3.4,1.5c0.9-0.3,1.8-0.7,2.6-1.2c-0.4,0.9-1,1.7-1.7,2.5c0.8-0.2,1.5-0.4,2.3-0.7
	C84.4,69.9,83.7,70.6,82.8,71.2z"/>
<g id="youtube_1_" transform="translate(3348 -2935)">
	<path id="Path_88_1_" class="st1" d="M-3261,3045h-24c-1.7,0-3,1.3-3,3v24c0,1.7,1.3,3,3,3h24c1.7,0,3-1.3,3-3v-24
		C-3258,3046.3-3259.3,3045-3261,3045z"/>
	<g id="Group_91_1_" transform="translate(641 2400)">
		<path id="Path_68_1_" class="st12" d="M-3907.4,653.2c0,0-3-0.2-6.6-0.2c-3.4,0-6.6,0.2-6.6,0.2c-1.7-0.1-3.2,1.3-3.3,3
			c0,0.1,0,0.1,0,0.2c0,0-0.2,1.8-0.2,4.1c0,2,0.2,4.1,0.2,4.1c-0.1,1.7,1.3,3.2,3,3.3c0.1,0,0.1,0,0.2,0c0,0,3.5,0.2,6.6,0.2
			c3.6,0,6.6-0.2,6.6-0.2c1.7,0.1,3.2-1.3,3.3-3c0-0.1,0-0.1,0-0.2c0,0,0.2-2,0.2-4.1c0-2.2-0.2-4.1-0.2-4.1
			c0.1-1.7-1.3-3.2-3.1-3.3C-3907.3,653.2-3907.3,653.2-3907.4,653.2z M-3910.1,660.5l-6.4,3.6v-7.2L-3910.1,660.5z"/>
	</g>
</g>
<g>
	<polygon class="st1" points="72.5,179.1 78.9,175.5 72.5,171.9 	"/>
	<path class="st1" d="M87,160H63c-1.7,0-3,1.3-3,3v24c0,1.7,1.3,3,3,3h24c1.7,0,3-1.3,3-3v-24C90,161.3,88.7,160,87,160z
		 M84.8,179.6c0,0.1,0,0.1,0,0.2c-0.1,1.7-1.5,3.1-3.3,3c0,0-3,0.2-6.6,0.2c-3.1,0-6.6-0.2-6.6-0.2c-0.1,0-0.1,0-0.2,0
		c-1.7-0.1-3.1-1.5-3-3.3c0,0-0.2-2.1-0.2-4.1c0-2.3,0.2-4.1,0.2-4.1c0-0.1,0-0.1,0-0.2c0.1-1.7,1.5-3.1,3.3-3c0,0,3.2-0.2,6.6-0.2
		c3.5,0,6.6,0.2,6.6,0.2c0.1,0,0.1,0,0.2,0c1.7,0.1,3.1,1.5,3.1,3.3c0,0,0.2,1.9,0.2,4.1C85,177.6,84.8,179.6,84.8,179.6z"/>
</g>
<g id="skype_1_" transform="translate(3348 -2935)">
	<path id="Path_89_1_" class="st1" d="M-3211,3045h-24c-1.7,0-3,1.3-3,3v24c0,1.7,1.3,3,3,3h24c1.7,0,3-1.3,3-3v-24
		C-3208,3046.3-3209.3,3045-3211,3045z"/>
	<path id="Path_71_1_" class="st13" d="M-3213.8,3061.6c0.1-0.5,0.1-1.1,0.1-1.6c0-5.2-4.2-9.3-9.3-9.3c0,0,0,0,0,0
		c-0.6,0-1.1,0.1-1.7,0.2c-0.8-0.5-1.8-0.8-2.8-0.8c-3,0-5.5,2.4-5.5,5.5c0,0,0,0,0,0c0,1,0.3,2,0.8,2.8c-0.1,0.6-0.2,1.1-0.2,1.7
		c0,5.2,4.2,9.3,9.3,9.3c0,0,0,0,0,0c0.5,0,1.1,0,1.6-0.1c0.9,0.6,1.9,0.9,3,0.9c3,0,5.5-2.4,5.5-5.5c0,0,0,0,0,0
		C-3213,3063.5-3213.3,3062.5-3213.8,3061.6z M-3222.8,3065.9c-4.2,0-5-1.9-5-2.9c-0.1-0.5,0.3-1,0.8-1.1c0.1,0,0.2,0,0.3,0
		c1.6,0,1.2,2.1,3.7,2.1c2,0,2.2-1,2.2-1.6c0-1-1.1-1.2-3.6-1.7c-1.9-0.4-3.3-1.4-3.3-3.3c0-1.4,1-3.5,4.5-3.5c3.8,0,4.6,2,4.6,2.5
		c0,0.6-0.2,1.2-1.2,1.2s-1.1-1.7-3.3-1.7c-1.9,0-2,1-2,1.3c0,0.4,0.1,1.2,3.1,1.6c3.6,0.5,3.9,2.1,3.9,3.3
		C-3218.2,3063.4-3218.6,3065.9-3222.8,3065.9z"/>
</g>
<g>
	<path class="st1" d="M125.9,173.9c-3-0.4-3.1-1.2-3.1-1.6c0-0.3,0.2-1.3,2-1.3c2.2,0,2.3,1.7,3.3,1.7s1.2-0.6,1.2-1.2
		c0-0.6-0.8-2.5-4.6-2.5c-3.5,0-4.5,2.1-4.5,3.5c0,1.9,1.4,2.9,3.3,3.3c2.5,0.5,3.6,0.7,3.6,1.7c0,0.5-0.2,1.6-2.2,1.6
		c-2.5,0-2.2-2.1-3.7-2.1c-0.1,0-0.2,0-0.3,0c-0.5,0.1-0.9,0.6-0.8,1.1c0,1,0.8,2.9,5,2.9s4.6-2.6,4.6-3.7
		C129.8,176,129.5,174.4,125.9,173.9z"/>
	<path class="st1" d="M137,160h-24c-1.7,0-3,1.3-3,3v24c0,1.7,1.3,3,3,3h24c1.7,0,3-1.3,3-3v-24C140,161.3,138.7,160,137,160z
		 M135,179.5c0,3-2.5,5.5-5.5,5.5c-1,0-2.1-0.3-3-0.9c-0.5,0.1-1.1,0.1-1.6,0.1c0,0,0,0,0,0c-5.2,0-9.3-4.2-9.3-9.3
		c0-0.6,0.1-1.1,0.2-1.7c-0.5-0.8-0.8-1.8-0.8-2.8c0,0,0,0,0,0c0-3,2.5-5.5,5.5-5.5c1,0,2,0.3,2.8,0.8c0.6-0.1,1.1-0.2,1.7-0.2
		c0,0,0,0,0,0c5.2,0,9.3,4.2,9.3,9.3c0,0.5,0,1.1-0.1,1.6C134.7,177.5,135,178.5,135,179.5C135,179.5,135,179.5,135,179.5z"/>
</g>
<polygon class="st1" points="482.7,25 469.5,38.5 467.3,36.5 478.5,25 467.3,13.6 469.5,11.5 "/>
<polygon class="st0" points="432.7,25 419.5,38.5 417.3,36.5 428.5,25 417.3,13.6 419.5,11.5 "/>
<polygon class="st14" points="782.7,25 769.5,38.5 767.3,36.5 778.5,25 767.3,13.6 769.5,11.5 "/>
<polygon class="st1" points="467.3,75 480.5,61.5 482.7,63.5 471.5,75 482.7,86.4 480.5,88.5 "/>
<polygon class="st0" points="517.3,75 530.5,61.5 532.7,63.5 521.5,75 532.7,86.4 530.5,88.5 "/>
<polygon class="st1" points="575,82.7 561.5,69.5 563.5,67.3 575,78.5 586.4,67.3 588.5,69.5 "/>
<polygon class="st14" points="775,82.7 761.5,69.5 763.5,67.3 775,78.5 786.4,67.3 788.5,69.5 "/>
<polygon class="st15" points="675,17.3 688.5,30.5 686.5,32.7 675,21.5 663.6,32.7 661.5,30.5 "/>
<g>
	<rect x="613.7" y="24" class="st1" width="23.3" height="2.7"/>
	
		<rect x="613.7" y="24" transform="matrix(-1.836970e-16 1 -1 -1.836970e-16 650.7375 -599.978)" class="st1" width="23.3" height="2.7"/>
</g>
<rect x="613.8" y="73.8" class="st1" width="23.3" height="2.7"/>
<polygon class="st1" points="675.8,67.3 689.4,80.5 687.3,82.7 675.8,71.5 664.4,82.7 662.3,80.5 "/>
<path class="st16" d="M478,118.1l0.9,1.3H478v0.4l-0.9-0.4L478,118.1z M471.5,135.6l0.5-0.7l0.4-1.3l0.9-0.4l0.4-1.7l0.9-1.3
	l-0.9-0.4l-1.7-0.9l-0.4-1.3h-1.3l-0.4-0.9l-1.7-0.9l-0.9,1.3l-0.9-0.4v-0.9l-0.4-0.4v-0.9l-0.9,0.9l-0.9-0.4v-0.9l1.3-0.9l1.3,0.9
	l0.9-0.9l1.7-2.1l1.3-0.4v-0.4v-0.4l1.3,0.4l0.4-1.3l-0.4-0.9l-1.3-0.4l-0.4,0.9h-0.9v0.9l-1.3-0.9l0.4-0.4l1.7-0.9l0.9-0.9h0.4
	l-0.4,0.9l0.9,0.4l0.9-0.9l-0.4-1.3h-1.3l-0.4,0.9l-0.4-0.9l0.3-0.8l1-0.4l0.4,0.8h0.9l0.4,1.3v0.9l0.9,1.3l0.4-0.9l1.3-0.9l0.9-1.7
	l0.3-1.1c1.9,0.3,3.7,1.2,5.1,2.4l-1.6,0.4l-0.9,0.9l-0.9,0.4l1.7,0.4h0.9l-0.4-1.3h0.9l-0.4,1.7h-1.7l-0.9,0.4l-0.4,0.9l-0.4,0.9
	h-0.4l-0.4,0.4l0.9,0.4l1.3-1.3l0.9,0.4l0.9,0.9v-0.4l-0.4-0.9l1.3,0.9l0.9,0.4l0.9,0.4c0,0,0.9,0.9,0.4,0.9c-0.4,0-1.7-0.4-1.7-0.4
	l-1.3,0.4l-0.9-1.3h-1.7l-1.3,0.4l-1.3,1.7l-0.4,1.3l0.4,1.7l1.3,0.9l1.7-0.4l1.3,0.4v1.3l0.4,1.3l-0.4,0.9l1.2,2.7
	c-1.8,1.2-3.9,2-6.3,2C473.8,136.1,472.6,135.9,471.5,135.6z M463.9,125.6l0.4,0.2l0.4,0.4h0.9l1.3,0.9v0.9l-0.4,0.9l0.9,1.3
	l1.3,1.3l0.4,0.9v1.7v0.4C466.1,132.5,464.1,129.3,463.9,125.6z M469.9,116v0.9l-0.9-0.4l-0.7-0.3c0.2-0.1,0.4-0.3,0.6-0.4
	L469.9,116z M482.7,120.7l1.3,0.4l0.9,0.9l-1.3-0.9l-0.9,0.4V120.7z M485.3,125.9l-1.3-1.3v-0.9l0.9,0.9l1.2,2c0,0.1,0,0.3,0,0.3
	L485.3,125.9z M484.9,128.9l0.9-0.9l0-0.1c-0.2,0.6-0.3,1.1-0.6,1.7L484.9,128.9z M475,113c-6.6,0-12,5.4-12,12c0,6.6,5.4,12,12,12
	c6.6,0,12-5.4,12-12C487,118.4,481.6,113,475,113z"/>
<path class="st17" d="M478,168.1l0.9,1.3H478v0.4l-0.9-0.4L478,168.1z M471.5,185.6l0.5-0.7l0.4-1.3l0.9-0.4l0.4-1.7l0.9-1.3
	l-0.9-0.4l-1.7-0.9l-0.4-1.3h-1.3l-0.4-0.9l-1.7-0.9l-0.9,1.3l-0.9-0.4v-0.9l-0.4-0.4v-0.9l-0.9,0.9l-0.9-0.4v-0.9l1.3-0.9l1.3,0.9
	l0.9-0.9l1.7-2.1l1.3-0.4v-0.4v-0.4l1.3,0.4l0.4-1.3l-0.4-0.9l-1.3-0.4l-0.4,0.9h-0.9v0.9l-1.3-0.9l0.4-0.4l1.7-0.9l0.9-0.9h0.4
	l-0.4,0.9l0.9,0.4l0.9-0.9l-0.4-1.3h-1.3l-0.4,0.9l-0.4-0.9l0.3-0.8l1-0.4l0.4,0.8h0.9l0.4,1.3v0.9l0.9,1.3l0.4-0.9l1.3-0.9l0.9-1.7
	l0.3-1.1c1.9,0.3,3.7,1.2,5.1,2.4l-1.6,0.4l-0.9,0.9l-0.9,0.4l1.7,0.4h0.9l-0.4-1.3h0.9l-0.4,1.7h-1.7l-0.9,0.4l-0.4,0.9l-0.4,0.9
	h-0.4l-0.4,0.4l0.9,0.4l1.3-1.3l0.9,0.4l0.9,0.9v-0.4l-0.4-0.9l1.3,0.9l0.9,0.4l0.9,0.4c0,0,0.9,0.9,0.4,0.9c-0.4,0-1.7-0.4-1.7-0.4
	l-1.3,0.4l-0.9-1.3h-1.7l-1.3,0.4l-1.3,1.7l-0.4,1.3l0.4,1.7l1.3,0.9l1.7-0.4l1.3,0.4v1.3l0.4,1.3l-0.4,0.9l1.2,2.7
	c-1.8,1.2-3.9,2-6.3,2C473.8,186.1,472.6,185.9,471.5,185.6z M463.9,175.6l0.4,0.2l0.4,0.4h0.9l1.3,0.9v0.9l-0.4,0.9l0.9,1.3
	l1.3,1.3l0.4,0.9v1.7v0.4C466.1,182.5,464.1,179.3,463.9,175.6z M469.9,166v0.9l-0.9-0.4l-0.7-0.3c0.2-0.1,0.4-0.3,0.6-0.4
	L469.9,166z M482.7,170.7l1.3,0.4l0.9,0.9l-1.3-0.9l-0.9,0.4V170.7z M485.3,175.9l-1.3-1.3v-0.9l0.9,0.9l1.2,2c0,0.1,0,0.3,0,0.3
	L485.3,175.9z M484.9,178.9l0.9-0.9l0-0.1c-0.2,0.6-0.3,1.1-0.6,1.7L484.9,178.9z M475,163c-6.6,0-12,5.4-12,12s5.4,12,12,12
	c6.6,0,12-5.4,12-12S481.6,163,475,163z"/>
<polygon class="st0" points="575,32.7 561.5,19.5 563.5,17.3 575,28.5 586.4,17.3 588.5,19.5 "/>
<path id="Path_246_2_" d="M322.1,25L335,1.7h-7.1L315,25l12.9,23.3h7.1L322.1,25z"/>
<path id="Path_246_3_" class="st0" d="M372.1,25L385,1.7h-7.1L365,25l12.9,23.3h7.1L372.1,25z"/>
<path id="Path_246_1_" d="M377.9,75L365,98.3h7.1L385,75l-12.9-23.3H365L377.9,75z"/>
<g id="Group_746" transform="translate(4445 -357)">
	<path id="Path_85" class="st0" d="M-4105.1,492.3l-4-4c1.4-2.3,2.2-4.9,2.2-7.6c0-7.7-6.1-14-13.8-14c-0.1,0-0.1,0-0.2,0
		c-7.7,0-14,6.1-14,13.8c0,0.1,0,0.1,0,0.2c0,7.7,6.1,14,13.8,14c0.1,0,0.1,0,0.2,0c2.7,0,5.3-0.8,7.6-2.2l4,4
		c1.2,1.1,3.1,1.1,4.2,0C-4104,495.3-4104,493.4-4105.1,492.3z M-4120.9,492.7c-6.6,0-12-5.4-12-12s5.4-12,12-12s12,5.4,12,12
		C-4108.9,487.3-4114.3,492.7-4120.9,492.7z"/>
</g>
<g id="Group_746_1_" transform="translate(4445 -357)">
	<path id="Path_85_1_" class="st18" d="M-4155.5,492.3l-4-4c1.4-2.3,2.2-4.9,2.2-7.6c0-7.7-6.1-14-13.8-14c-0.1,0-0.1,0-0.2,0
		c-7.7,0-14,6.1-14,13.8c0,0.1,0,0.1,0,0.2c0,7.7,6.1,14,13.8,14c0.1,0,0.1,0,0.2,0c2.7,0,5.3-0.8,7.6-2.2l4,4
		c1.2,1.1,3.1,1.1,4.2,0C-4154.4,495.3-4154.4,493.4-4155.5,492.3z M-4171.3,492.7c-6.6,0-12-5.4-12-12s5.4-12,12-12s12,5.4,12,12
		C-4159.3,487.3-4164.7,492.7-4171.3,492.7z"/>
</g>
<g id="Group_751" transform="translate(3227.245 15470.671) rotate(150)">
	<path id="Path_80" class="st0" d="M-5194.1,14715.7c0,6.3-3.5,15.8-4.6,16.6c-1.9,0.8-3.9,1.3-5.9,1.4c-0.8-0.2-1.5-0.7-2-1.3
		c-0.5-0.7,1.6-8.1,2.4-8.5c0.8-0.4,3.5-0.2,4.5-0.6c1-2.4,1.6-5,1.6-7.7l0,0c0-2.6-0.5-5.2-1.6-7.7c-1-0.4-3.8-0.2-4.5-0.6
		c-0.8-0.4-2.8-7.7-2.4-8.5c0.5-0.6,1.3-1.1,2-1.3c2,0.1,4,0.6,5.9,1.4C-5197.5,14699.9-5194.1,14709.5-5194.1,14715.7
		L-5194.1,14715.7z"/>
</g>
<g id="Group_750" transform="translate(3156 15454)">
	<path id="Path_77" class="st0" d="M-2731-15326.5l-12-8v14.4h24v-14.4L-2731-15326.5z"/>
	<path id="Path_78" class="st0" d="M-2731-15328l12-8v-2.1h-24v2.1L-2731-15328z"/>
</g>
<path id="Path_246" class="st0" d="M327.9,75L315,98.3h7.1L335,75l-12.9-23.3H315L327.9,75z"/>
<g id="Group_750_1_" transform="translate(3156 15454)">
	<path id="Path_77_1_" class="st1" d="M-2731-15276.5l-12-8v14.4h24v-14.4L-2731-15276.5z"/>
	<path id="Path_78_1_" class="st1" d="M-2731-15278l12-8v-2.1h-24v2.1L-2731-15278z"/>
</g>
<g id="Group_751_1_" transform="translate(3227.245 15470.671) rotate(150)">
	<path id="Path_80_1_" class="st1" d="M-5169.1,14672.4c0,6.3-3.5,15.8-4.6,16.6c-1.9,0.8-3.9,1.3-5.9,1.4c-0.8-0.2-1.5-0.7-2-1.3
		c-0.5-0.7,1.6-8.1,2.4-8.5c0.8-0.4,3.5-0.2,4.5-0.6c1-2.4,1.6-5,1.6-7.7l0,0c0-2.6-0.5-5.2-1.6-7.7c-1-0.4-3.8-0.2-4.5-0.6
		c-0.8-0.4-2.8-7.7-2.4-8.5c0.5-0.6,1.3-1.1,2-1.3c2,0.1,4,0.6,5.9,1.4C-5172.5,14656.6-5169.1,14666.2-5169.1,14672.4
		L-5169.1,14672.4z"/>
</g>
<g id="Group_746_2_" transform="translate(4445 -357)">
	<path id="Path_85_2_" class="st1" d="M-4105.5,542.3l-4-4c1.4-2.3,2.2-4.9,2.2-7.6c0-7.7-6.1-14-13.8-14c-0.1,0-0.1,0-0.2,0
		c-7.7,0-14,6.1-14,13.8c0,0.1,0,0.1,0,0.2c0,7.7,6.1,14,13.8,14c0.1,0,0.1,0,0.2,0c2.7,0,5.3-0.8,7.6-2.2l4,4
		c1.2,1.1,3.1,1.1,4.2,0C-4104.4,545.3-4104.4,543.4-4105.5,542.3z M-4121.3,542.7c-6.6,0-12-5.4-12-12c0-6.6,5.4-12,12-12
		s12,5.4,12,12C-4109.3,537.3-4114.7,542.7-4121.3,542.7z"/>
</g>
<rect x="156.7" y="-102" class="st19" width="50" height="50"/>
<path id="Path_116" class="st1" d="M725,24.1l7,5.9v-4.1l-7-5.9l-7,5.9V30L725,24.1z"/>
<path id="Path_116_1_" class="st1" d="M725,75.9l-7-5.9v4.1l7,5.9l7-5.9V70L725,75.9z"/>
<g id="Group_2253" transform="translate(-1272.146 -738.646)">
	<line id="Line_212" class="st20" x1="1989.1" y1="905.6" x2="2005.1" y2="921.6"/>
	<line id="Line_213" class="st20" x1="2005.1" y1="905.6" x2="1989.1" y2="921.6"/>
</g>
<g id="Group_2193" transform="translate(-855 -567)">
	<path id="Path_15346" class="st11" d="M1014,572h32c2.2,0,4,1.8,4,4v32c0,2.2-1.8,4-4,4h-32c-2.2,0-4-1.8-4-4v-32
		C1010,573.8,1011.8,572,1014,572z"/>
	<g id="Group_2068" transform="translate(861 575)">
		<path id="Path_15345" class="st1" d="M168.6,12.2c-2.3,1.1-9.2-2.2-12.2-5.8c-1.4,1.4-1.2,6.4,2.2,7.4c-0.9,0.5-2.1,0.5-3-0.2
			c0.6,3.6,1.8,4.2,4.6,5.8c-0.8,0.1-1.6,0.1-2.4,0c0.6,2.4,2.8,3.6,5.2,4c-2.8,3.4-8,2.6-8,2.6c2.5,1.7,5.4,2.6,8.4,2.6
			c13.4,0,16.8-13,16.8-15.2c0-0.9-0.1-1.7-0.2-2.6c1.2-0.8,2.3-1.8,3-3c-1,0.4-2.1,0.8-3.2,1c1-1,1.8-2.2,2.4-3.4
			c-1.1,0.8-2.4,1.4-3.7,1.7c-1.1-1.5-2.9-2.3-4.7-2.1C167.9,5.4,168.6,12.2,168.6,12.2z"/>
	</g>
</g>
</svg>
