<svg xmlns="http://www.w3.org/2000/svg" width="161.954" height="31.304" viewBox="0 0 161.954 31.304">
  <g id="logo-w" transform="translate(1.197 0.507)">
    <g id="Group_13" data-name="Group 13" transform="translate(35.99 -0.013)">
      <path id="Path_1" data-name="Path 1" d="M69.965,15.761H66.4v-5.3L60,.749h4.379l3.779,5.977L72.186.749H76.5l-6.538,9.708Z" transform="translate(-60 -0.292)" fill="#fff"/>
      <path id="Path_2" data-name="Path 2" d="M92.351,15.761h-3.6V.749h3.6Z" transform="translate(-71.503 -0.292)" fill="#fff"/>
      <path id="Path_3" data-name="Path 3" d="M110.565,4.479h-9.257v2.16H110V9.873h-8.692v2.292h9.364v3.6H97.739V.749H110.6v3.73Z" transform="translate(-75.102 -0.292)" fill="#fff"/>
      <path id="Path_4" data-name="Path 4" d="M124.847,15.761h-3.6V.749h3.6V6.277h7.385V.749H135.8V15.761h-3.569V9.873h-7.385Z" transform="translate(-84.507 -0.292)" fill="#fff"/>
      <path id="Path_5" data-name="Path 5" d="M167.638,5.883V5.748a2.42,2.42,0,0,0-.53-1.393,2.167,2.167,0,0,0-1.272-.36H162.9a3.17,3.17,0,0,0-2.332.449,3.271,3.271,0,0,0-.53,2.519V9.031a2.726,2.726,0,0,0,.636,2.292,3.261,3.261,0,0,0,2.261.584h2.155a3.481,3.481,0,0,0,2.05-.449,1.916,1.916,0,0,0,.742-1.753V9.568h3.569v1.168a5.96,5.96,0,0,1-.353,2.2,5.259,5.259,0,0,1-.78,1.62,3.079,3.079,0,0,1-1.8.674,12.4,12.4,0,0,1-2.509.225h-4.025a18.825,18.825,0,0,1-2.438-.135,3.579,3.579,0,0,1-1.7-.809,4.157,4.157,0,0,1-1.1-1.979,6.907,6.907,0,0,1-.283-2.562V5.927q-.106-3.438,1.272-4.719c.848-.854,2.226-1.213,4.2-1.168h4.028a7.217,7.217,0,0,1,2.509.135,3.15,3.15,0,0,1,1.8.944,3.437,3.437,0,0,1,.709,1.4,9.618,9.618,0,0,1,.283,2.427v.8h-3.642Z" transform="translate(-98.597 0.013)" fill="#fff"/>
      <path id="Path_6" data-name="Path 6" d="M189.146,15.689a23.488,23.488,0,0,1-2.685-.135,4.24,4.24,0,0,1-1.873-.809,3.959,3.959,0,0,1-.919-1.843,7.3,7.3,0,0,1-.283-2.652V6.206a11.026,11.026,0,0,1,.177-3.011,3.261,3.261,0,0,1,.989-1.753A4.043,4.043,0,0,1,186.425.5,7.144,7.144,0,0,1,189.11.275h4.312A7.206,7.206,0,0,1,196.108.5a3.365,3.365,0,0,1,2.721,2.7,8.483,8.483,0,0,1,.352,2.786v4.133a9.232,9.232,0,0,1-.353,2.787,3.959,3.959,0,0,1-.919,1.843,3.389,3.389,0,0,1-1.873.674,14.154,14.154,0,0,1-2.615.225h-4.276Zm.989-3.6H192.4a3.88,3.88,0,0,0,2.438-.584,2.937,2.937,0,0,0,.78-2.427V7.015a2.929,2.929,0,0,0-.78-2.427,3.434,3.434,0,0,0-2.438-.449h-2.261a3.756,3.756,0,0,0-2.509.449c-.5.4-.707,1.213-.636,2.519V9.175a2.534,2.534,0,0,0,.742,2.292,3.609,3.609,0,0,0,2.4.627Z" transform="translate(-109.361 -0.085)" fill="#fff"/>
      <path id="Path_7" data-name="Path 7" d="M221.261.74a5.036,5.036,0,0,1,3.71.944q1.06,1.146,1.06,4.045a7.606,7.606,0,0,1-.424,2.787,2.474,2.474,0,0,1-1.449,1.393,2.536,2.536,0,0,1,1.38.944,5.341,5.341,0,0,1,.53,1.979v3.011h-3.675v-2.2a1.662,1.662,0,0,0-.46-1.393,1.343,1.343,0,0,0-1.166-.225h-5.3v3.82h-3.606V.74Zm-.177,3.73h-5.653V8.156h5.653a1.01,1.01,0,0,0,.989-.449,3.12,3.12,0,0,0,.283-1.483,2.846,2.846,0,0,0-.283-1.393c-.176-.269-.494-.359-.989-.359Z" transform="translate(-120.769 -0.282)" fill="#fff"/>
      <path id="Path_8" data-name="Path 8" d="M246.52.718a4.026,4.026,0,0,1,1.8.135,3.65,3.65,0,0,1,1.342.449,3.152,3.152,0,0,1,1.272,1.843,8.748,8.748,0,0,1,.459,3.236,8.383,8.383,0,0,1-.813,4.27,2.836,2.836,0,0,1-2.686,1.393h-6.746v3.685h-3.6V.718Zm-.106,3.73h-5.3v3.91h5.3a1.02,1.02,0,0,0,.989-.584,2.408,2.408,0,0,0,.353-1.483A2.2,2.2,0,0,0,247.4,4.9a1.163,1.163,0,0,0-.989-.449Z" transform="translate(-131.046 -0.261)" fill="#fff"/>
      <path id="Path_9" data-name="Path 9" d="M265.832,23h-3.251V18.73h3.251Z" transform="translate(-141.065 -7.488)" fill="#fff"/>
    </g>
    <g id="Group_360" data-name="Group 360" transform="translate(0 -0.005)">
      <path id="Subtraction_5" data-name="Subtraction 5" d="M-399.177,474.984h-15l15-15.745v15.744Zm-15,0h-15V444.992h14.245l-14.243,14.519h12.744l15-14.521h2.252v2.249l-15,15v12.746Zm-3-6.373h1.124v4.874h1.125V462.238h-1.125v5.248h-1.124v-5.248H-418.3v11.246h1.125v-4.872Zm-5.249-6.373h0v11.246h3.374V472.36H-421.3v-3.75h2.25v-1.124h-2.25v-4.124h2.249v-1.124Zm-1.874,0h0v11.246h1.124V462.238Zm-4.124,0h0l1.125,6v5.248h1.124v-5.248l1.125-6h-.75l-.75,4-.75-4Z" transform="translate(429.169 -444.992)" fill="#fff" stroke="rgba(0,0,0,0)" stroke-miterlimit="10" stroke-width="1"/>
    </g>
    <g id="Group_442" data-name="Group 442" transform="translate(36.657 21.141)">
      <path id="Path_15443" data-name="Path 15443" d="M61.111,41.279V35.42h.677v5.859Z" transform="translate(-61.111 -35.32)" fill="#fff"/>
      <path id="Path_15444" data-name="Path 15444" d="M65.169,42.292V38.047h.565v.6a1.294,1.294,0,0,1,1.18-.7,1.372,1.372,0,0,1,.616.139.993.993,0,0,1,.42.361,1.5,1.5,0,0,1,.2.532,4.691,4.691,0,0,1,.035.7v2.61h-.628V39.71a2.212,2.212,0,0,0-.073-.657.678.678,0,0,0-.26-.348.748.748,0,0,0-.438-.13.945.945,0,0,0-.693.292,1.576,1.576,0,0,0-.292,1.107v2.318Z" transform="translate(-62.735 -36.333)" fill="#fff"/>
      <path id="Path_15445" data-name="Path 15445" d="M74.01,40.724l.091.635a2.051,2.051,0,0,1-.474.064A.961.961,0,0,1,73.1,41.3a.663.663,0,0,1-.265-.326,2.936,2.936,0,0,1-.077-.849V37.682H72.3v-.56h.461V36.071l.625-.431v1.482h.632v.56h-.632v2.482a1.429,1.429,0,0,0,.033.4.292.292,0,0,0,.108.14.374.374,0,0,0,.215.052,1.787,1.787,0,0,0,.271-.032Z" transform="translate(-65.586 -35.408)" fill="#fff"/>
      <path id="Path_15446" data-name="Path 15446" d="M79.65,40.925l.65.092a1.856,1.856,0,0,1-.569,1.011,1.564,1.564,0,0,1-1.061.36,1.592,1.592,0,0,1-1.29-.573,2.452,2.452,0,0,1-.476-1.609,2.567,2.567,0,0,1,.482-1.662,1.537,1.537,0,0,1,1.249-.592,1.492,1.492,0,0,1,1.215.58,2.519,2.519,0,0,1,.471,1.63c0,.043,0,.106,0,.192H77.552a1.77,1.77,0,0,0,.346,1.071.969.969,0,0,0,.775.372.878.878,0,0,0,.589-.208A1.4,1.4,0,0,0,79.65,40.925Zm-2.063-1.163h2.07a1.573,1.573,0,0,0-.237-.8.92.92,0,0,0-.779-.416.936.936,0,0,0-.728.331,1.418,1.418,0,0,0-.326.885Z" transform="translate(-67.43 -36.333)" fill="#fff"/>
      <path id="Path_15447" data-name="Path 15447" d="M84.677,42.643l.611.1a.694.694,0,0,0,.213.471.952.952,0,0,0,.639.2,1.018,1.018,0,0,0,.674-.2,1,1,0,0,0,.321-.559,5.255,5.255,0,0,0,.046-.923,1.237,1.237,0,0,1-1.026.555,1.338,1.338,0,0,1-1.183-.632,2.677,2.677,0,0,1-.419-1.515,3.188,3.188,0,0,1,.192-1.121,1.736,1.736,0,0,1,.557-.793,1.369,1.369,0,0,1,.857-.28,1.277,1.277,0,0,1,1.082.608v-.512h.58v3.669a3.953,3.953,0,0,1-.176,1.4,1.406,1.406,0,0,1-.559.653,1.732,1.732,0,0,1-.94.241,1.614,1.614,0,0,1-1.072-.343,1.229,1.229,0,0,1-.4-1.019Zm.519-2.55a2.042,2.042,0,0,0,.29,1.219.881.881,0,0,0,1.452,0,1.97,1.97,0,0,0,.293-1.2,1.921,1.921,0,0,0-.3-1.175.894.894,0,0,0-.728-.4.869.869,0,0,0-.712.39,1.912,1.912,0,0,0-.291,1.166Z" transform="translate(-70.491 -36.333)" fill="#fff"/>
      <path id="Path_15448" data-name="Path 15448" d="M92.641,42.292V38.047h.565v.644a1.753,1.753,0,0,1,.4-.6.636.636,0,0,1,.4-.144,1.119,1.119,0,0,1,.646.232l-.217.667a.819.819,0,0,0-.461-.156.552.552,0,0,0-.37.143.78.78,0,0,0-.234.393,3.188,3.188,0,0,0-.1.839v2.223Z" transform="translate(-73.728 -36.333)" fill="#fff"/>
      <path id="Path_15449" data-name="Path 15449" d="M97.7,36.247V35.42h.629v.827Zm0,5.032V37.034h.629v4.245Z" transform="translate(-75.752 -35.32)" fill="#fff"/>
      <path id="Path_15450" data-name="Path 15450" d="M102.554,40.724l.091.635a2.055,2.055,0,0,1-.474.064.961.961,0,0,1-.531-.124.663.663,0,0,1-.265-.326,2.914,2.914,0,0,1-.077-.849V37.682h-.461v-.56h.461V36.071l.624-.431v1.482h.632v.56h-.632v2.482a1.421,1.421,0,0,0,.034.4.292.292,0,0,0,.108.14.374.374,0,0,0,.215.052,1.794,1.794,0,0,0,.275-.032Z" transform="translate(-77.008 -35.408)" fill="#fff"/>
      <path id="Path_15451" data-name="Path 15451" d="M105.531,43.991l-.07-.675a1.259,1.259,0,0,0,.359.064.618.618,0,0,0,.335-.08.609.609,0,0,0,.206-.224,3.776,3.776,0,0,0,.192-.536c.012-.04.03-.1.056-.176L105.2,38.111h.677l.771,2.458q.15.468.269.984.108-.5.259-.968l.792-2.474h.629l-1.41,4.317a9.087,9.087,0,0,1-.353.963,1.379,1.379,0,0,1-.384.522.824.824,0,0,1-.516.166A1.119,1.119,0,0,1,105.531,43.991Z" transform="translate(-78.755 -36.397)" fill="#fff"/>
      <path id="Path_15452" data-name="Path 15452" d="M117.929,39.983v-.89h.777v.89Z" transform="translate(-83.847 -36.79)" fill="#fff"/>
      <path id="Path_15453" data-name="Path 15453" d="M127.2,41.279V35.42h1.93a4.042,4.042,0,0,1,.778.056,1.432,1.432,0,0,1,.632.274,1.4,1.4,0,0,1,.41.566,2.01,2.01,0,0,1,.155.8,1.961,1.961,0,0,1-.415,1.266,1.835,1.835,0,0,1-1.5.518h-1.312v2.382Zm.677-3.074H129.2a1.28,1.28,0,0,0,.932-.279,1.077,1.077,0,0,0,.275-.788,1.173,1.173,0,0,0-.162-.629.767.767,0,0,0-.428-.346,2.555,2.555,0,0,0-.632-.052h-1.309Z" transform="translate(-87.559 -35.32)" fill="#fff"/>
      <path id="Path_15454" data-name="Path 15454" d="M136.08,42.292V38.047h.564v.644a1.762,1.762,0,0,1,.4-.6.639.639,0,0,1,.4-.144,1.118,1.118,0,0,1,.646.232l-.217.667a.818.818,0,0,0-.46-.156.552.552,0,0,0-.371.143.78.78,0,0,0-.234.393,3.214,3.214,0,0,0-.1.839v2.223Z" transform="translate(-91.111 -36.333)" fill="#fff"/>
      <path id="Path_15455" data-name="Path 15455" d="M140.742,40.169a2.37,2.37,0,0,1,.572-1.747,1.6,1.6,0,0,1,1.166-.471,1.566,1.566,0,0,1,1.25.573,2.382,2.382,0,0,1,.485,1.585A3.154,3.154,0,0,1,144,41.4a1.655,1.655,0,0,1-1.52.99,1.565,1.565,0,0,1-1.258-.572A2.5,2.5,0,0,1,140.742,40.169Zm.645,0a1.991,1.991,0,0,0,.311,1.221.951.951,0,0,0,1.56,0,2.041,2.041,0,0,0,.311-1.243,1.933,1.933,0,0,0-.312-1.193.953.953,0,0,0-1.558,0,1.981,1.981,0,0,0-.312,1.215Z" transform="translate(-92.976 -36.333)" fill="#fff"/>
      <path id="Path_15456" data-name="Path 15456" d="M148.712,41.212V37.527h-.555v-.56h.555v-.452a2.243,2.243,0,0,1,.066-.635.908.908,0,0,1,.32-.453,1.037,1.037,0,0,1,.64-.174,2.7,2.7,0,0,1,.587.072l-.1.627a1.865,1.865,0,0,0-.37-.04.506.506,0,0,0-.4.14.837.837,0,0,0-.119.523v.392h.723v.56h-.723v3.685Z" transform="translate(-95.943 -35.253)" fill="#fff"/>
      <path id="Path_15457" data-name="Path 15457" d="M155.613,40.925l.649.092a1.851,1.851,0,0,1-.569,1.011,1.565,1.565,0,0,1-1.061.36,1.591,1.591,0,0,1-1.29-.573,2.452,2.452,0,0,1-.476-1.609,2.566,2.566,0,0,1,.482-1.662,1.535,1.535,0,0,1,1.249-.592,1.494,1.494,0,0,1,1.215.58,2.519,2.519,0,0,1,.471,1.63v.192h-2.765a1.774,1.774,0,0,0,.346,1.071.971.971,0,0,0,.775.372.881.881,0,0,0,.59-.208,1.4,1.4,0,0,0,.384-.664Zm-2.062-1.163h2.069a1.584,1.584,0,0,0-.237-.8.921.921,0,0,0-.779-.416.935.935,0,0,0-.728.331,1.411,1.411,0,0,0-.326.885Z" transform="translate(-97.828 -36.333)" fill="#fff"/>
      <path id="Path_15458" data-name="Path 15458" d="M160.5,41.025l.621-.112a1.047,1.047,0,0,0,.292.655.931.931,0,0,0,.669.228.893.893,0,0,0,.642-.2.635.635,0,0,0,.209-.473.454.454,0,0,0-.185-.383,2.5,2.5,0,0,0-.642-.244,5.3,5.3,0,0,1-.958-.346.974.974,0,0,1-.405-.4,1.193,1.193,0,0,1-.137-.569,1.223,1.223,0,0,1,.113-.525,1.138,1.138,0,0,1,.309-.4,1.231,1.231,0,0,1,.4-.209,1.669,1.669,0,0,1,.543-.086,1.906,1.906,0,0,1,.767.144,1.06,1.06,0,0,1,.486.39,1.653,1.653,0,0,1,.217.658l-.614.1a.733.733,0,0,0-.81-.7.923.923,0,0,0-.617.164.5.5,0,0,0-.185.384.438.438,0,0,0,.077.252.555.555,0,0,0,.241.191c.062.027.248.088.555.184a7.056,7.056,0,0,1,.93.334.981.981,0,0,1,.414.378,1.166,1.166,0,0,1,.151.615,1.338,1.338,0,0,1-.184.678,1.24,1.24,0,0,1-.529.492,1.714,1.714,0,0,1-.782.174,1.584,1.584,0,0,1-1.1-.344A1.671,1.671,0,0,1,160.5,41.025Z" transform="translate(-100.881 -36.333)" fill="#fff"/>
      <path id="Path_15459" data-name="Path 15459" d="M167.527,41.025l.621-.112a1.047,1.047,0,0,0,.292.655.932.932,0,0,0,.669.228.892.892,0,0,0,.642-.2.635.635,0,0,0,.209-.473.454.454,0,0,0-.185-.383,2.5,2.5,0,0,0-.642-.244,5.314,5.314,0,0,1-.958-.346.973.973,0,0,1-.4-.4,1.187,1.187,0,0,1-.138-.569,1.224,1.224,0,0,1,.114-.525,1.137,1.137,0,0,1,.308-.4,1.231,1.231,0,0,1,.4-.209,1.673,1.673,0,0,1,.543-.086,1.9,1.9,0,0,1,.766.144,1.057,1.057,0,0,1,.486.39,1.654,1.654,0,0,1,.217.658l-.614.1a.733.733,0,0,0-.81-.7.925.925,0,0,0-.618.164.5.5,0,0,0-.185.384.438.438,0,0,0,.077.252.561.561,0,0,0,.241.191q.095.041.555.184a7.106,7.106,0,0,1,.93.334.98.98,0,0,1,.413.378,1.166,1.166,0,0,1,.151.615,1.332,1.332,0,0,1-.184.678,1.242,1.242,0,0,1-.528.492,1.718,1.718,0,0,1-.782.174,1.584,1.584,0,0,1-1.1-.344,1.674,1.674,0,0,1-.49-1.03Z" transform="translate(-103.694 -36.333)" fill="#fff"/>
      <path id="Path_15460" data-name="Path 15460" d="M174.982,36.247V35.42h.629v.827Zm0,5.032V37.034h.629v4.245Z" transform="translate(-106.678 -35.32)" fill="#fff"/>
      <path id="Path_15461" data-name="Path 15461" d="M178.307,40.169a2.368,2.368,0,0,1,.572-1.747,1.6,1.6,0,0,1,1.165-.471,1.565,1.565,0,0,1,1.25.573,2.382,2.382,0,0,1,.485,1.585,3.143,3.143,0,0,1-.215,1.288,1.655,1.655,0,0,1-1.52.99,1.567,1.567,0,0,1-1.258-.572,2.5,2.5,0,0,1-.479-1.646Zm.645,0a2,2,0,0,0,.311,1.221.952.952,0,0,0,1.56,0,2.041,2.041,0,0,0,.311-1.243,1.929,1.929,0,0,0-.313-1.193.953.953,0,0,0-1.558,0,1.986,1.986,0,0,0-.311,1.215Z" transform="translate(-108.008 -36.333)" fill="#fff"/>
      <path id="Path_15462" data-name="Path 15462" d="M186.4,42.292V38.047h.566v.6a1.293,1.293,0,0,1,1.18-.7,1.371,1.371,0,0,1,.615.139.989.989,0,0,1,.421.361,1.5,1.5,0,0,1,.2.532,4.689,4.689,0,0,1,.035.7v2.61h-.628V39.71a2.212,2.212,0,0,0-.073-.657.681.681,0,0,0-.26-.348.75.75,0,0,0-.438-.13.945.945,0,0,0-.693.292,1.576,1.576,0,0,0-.292,1.107v2.318Z" transform="translate(-111.245 -36.333)" fill="#fff"/>
      <path id="Path_15463" data-name="Path 15463" d="M199.2,39.983v-.89h.777v.89Z" transform="translate(-116.368 -36.79)" fill="#fff"/>
      <path id="Path_15464" data-name="Path 15464" d="M208.5,41.279V35.42h3.7v.691h-3.023V37.9H212v.688h-2.831v1.994h3.141v.692Z" transform="translate(-120.088 -35.32)" fill="#fff"/>
      <path id="Path_15465" data-name="Path 15465" d="M217.24,41.212V37.527h-.555v-.56h.555v-.452a2.216,2.216,0,0,1,.067-.635.9.9,0,0,1,.319-.453,1.038,1.038,0,0,1,.64-.174,2.7,2.7,0,0,1,.587.072l-.094.627a1.866,1.866,0,0,0-.37-.04.5.5,0,0,0-.4.14.836.836,0,0,0-.119.523v.392h.723v.56h-.723v3.685Z" transform="translate(-123.365 -35.253)" fill="#fff"/>
      <path id="Path_15466" data-name="Path 15466" d="M221.409,41.212V37.527h-.555v-.56h.555v-.452a2.218,2.218,0,0,1,.067-.635.9.9,0,0,1,.319-.453,1.038,1.038,0,0,1,.64-.174,2.7,2.7,0,0,1,.587.072l-.094.627a1.866,1.866,0,0,0-.37-.04.5.5,0,0,0-.4.14.836.836,0,0,0-.119.523v.392h.723v.56h-.723v3.685Z" transform="translate(-125.034 -35.253)" fill="#fff"/>
      <path id="Path_15467" data-name="Path 15467" d="M225.917,36.247V35.42h.629v.827Zm0,5.032V37.034h.629v4.245Z" transform="translate(-127.06 -35.32)" fill="#fff"/>
      <path id="Path_15468" data-name="Path 15468" d="M231.923,40.737l.617.092a1.928,1.928,0,0,1-.518,1.145,1.4,1.4,0,0,1-1.024.414,1.5,1.5,0,0,1-1.224-.57,2.53,2.53,0,0,1-.462-1.632,3.329,3.329,0,0,1,.2-1.2,1.535,1.535,0,0,1,.605-.774,1.625,1.625,0,0,1,.885-.258,1.41,1.41,0,0,1,.987.35,1.668,1.668,0,0,1,.492.993l-.611.108a1.212,1.212,0,0,0-.308-.643.741.741,0,0,0-.536-.216.926.926,0,0,0-.771.389,2.051,2.051,0,0,0-.3,1.233,2.119,2.119,0,0,0,.286,1.243.886.886,0,0,0,.747.387.819.819,0,0,0,.618-.26A1.379,1.379,0,0,0,231.923,40.737Z" transform="translate(-128.418 -36.333)" fill="#fff"/>
      <path id="Path_15469" data-name="Path 15469" d="M236.667,36.247V35.42h.629v.827Zm0,5.032V37.034h.629v4.245Z" transform="translate(-131.361 -35.32)" fill="#fff"/>
      <path id="Path_15470" data-name="Path 15470" d="M242.78,40.925l.649.092a1.851,1.851,0,0,1-.569,1.011,1.565,1.565,0,0,1-1.061.36,1.591,1.591,0,0,1-1.29-.573,2.452,2.452,0,0,1-.476-1.609,2.567,2.567,0,0,1,.482-1.662,1.535,1.535,0,0,1,1.249-.592,1.494,1.494,0,0,1,1.215.58,2.518,2.518,0,0,1,.471,1.63v.192h-2.765a1.774,1.774,0,0,0,.346,1.071.971.971,0,0,0,.775.372.881.881,0,0,0,.59-.208,1.4,1.4,0,0,0,.384-.664Zm-2.062-1.163h2.069a1.585,1.585,0,0,0-.237-.8.921.921,0,0,0-.779-.416.935.935,0,0,0-.728.331,1.41,1.41,0,0,0-.326.885Z" transform="translate(-132.708 -36.333)" fill="#fff"/>
      <path id="Path_15471" data-name="Path 15471" d="M248.082,42.292V38.047h.566v.6a1.294,1.294,0,0,1,1.18-.7,1.376,1.376,0,0,1,.616.139,1,1,0,0,1,.42.361,1.513,1.513,0,0,1,.2.532,4.689,4.689,0,0,1,.035.7v2.61h-.628V39.71a2.212,2.212,0,0,0-.073-.657.681.681,0,0,0-.26-.348.75.75,0,0,0-.438-.13.945.945,0,0,0-.693.292,1.58,1.58,0,0,0-.291,1.107v2.318Z" transform="translate(-135.929 -36.333)" fill="#fff"/>
      <path id="Path_15472" data-name="Path 15472" d="M258.074,40.737l.618.092a1.932,1.932,0,0,1-.519,1.145,1.4,1.4,0,0,1-1.024.414,1.5,1.5,0,0,1-1.224-.57,2.534,2.534,0,0,1-.462-1.632,3.329,3.329,0,0,1,.2-1.2,1.54,1.54,0,0,1,.606-.774,1.623,1.623,0,0,1,.885-.258,1.413,1.413,0,0,1,.988.35,1.668,1.668,0,0,1,.492.993l-.611.108a1.212,1.212,0,0,0-.309-.643.74.74,0,0,0-.536-.216.926.926,0,0,0-.771.389,2.052,2.052,0,0,0-.3,1.233,2.114,2.114,0,0,0,.287,1.243.885.885,0,0,0,.747.387.817.817,0,0,0,.617-.26,1.379,1.379,0,0,0,.316-.8Z" transform="translate(-138.883 -36.333)" fill="#fff"/>
      <path id="Path_15473" data-name="Path 15473" d="M262.548,43.991l-.07-.675a1.259,1.259,0,0,0,.359.064.556.556,0,0,0,.541-.3,3.906,3.906,0,0,0,.193-.536c.011-.04.029-.1.055-.176l-1.406-4.253h.677l.771,2.458q.15.468.269.984.108-.5.259-.968l.792-2.474h.628l-1.41,4.317a9.066,9.066,0,0,1-.353.963,1.385,1.385,0,0,1-.383.522.829.829,0,0,1-.517.166,1.111,1.111,0,0,1-.4-.092Z" transform="translate(-141.587 -36.397)" fill="#fff"/>
    </g>
  </g>
</svg>
