<svg xmlns="http://www.w3.org/2000/svg" width="230.419" height="43" viewBox="0 0 230.419 43">
  <g id="logo" transform="translate(0 0.013)">
    <g id="Group_13" data-name="Group 13" transform="translate(51.586 -0.013)">
      <path id="Path_1" data-name="Path 1" d="M74.283,22.266H69.167v-7.6L60,.749h6.276l5.417,8.568L77.466.749h6.179L74.274,14.664Z" transform="translate(-60 -0.094)" fill="#777"/>
      <path id="Path_2" data-name="Path 2" d="M93.913,22.266H88.747V.749h5.166Z" transform="translate(-64.031 -0.094)" fill="#777"/>
      <path id="Path_3" data-name="Path 3" d="M116.124,6.1H102.855V9.2h12.459v4.635H102.855V17.12h13.421v5.153H97.739V.749h18.435V6.1Z" transform="translate(-65.292 -0.094)" fill="#777"/>
      <path id="Path_4" data-name="Path 4" d="M126.409,22.266h-5.166V.749h5.166V8.673h10.585V.749h5.116V22.266h-5.116v-8.44H126.409Z" transform="translate(-68.588 -0.094)" fill="#777"/>
      <path id="Path_5" data-name="Path 5" d="M172.484,8.438V8.244a3.469,3.469,0,0,0-.76-2,3.105,3.105,0,0,0-1.824-.516h-4.2c-1.671-.129-2.786.129-3.343.644-.608.579-.86,1.739-.76,3.611V12.95a3.907,3.907,0,0,0,.911,3.285,4.675,4.675,0,0,0,3.241.837h3.089a4.989,4.989,0,0,0,2.938-.644,2.747,2.747,0,0,0,1.064-2.512v-.2h5.116v1.675a8.543,8.543,0,0,1-.506,3.156,7.538,7.538,0,0,1-1.118,2.321,4.414,4.414,0,0,1-2.579.966,17.768,17.768,0,0,1-3.6.322h-5.769a26.984,26.984,0,0,1-3.495-.193,5.13,5.13,0,0,1-2.431-1.16,5.958,5.958,0,0,1-1.57-2.837,9.9,9.9,0,0,1-.4-3.672V8.5q-.152-4.928,1.824-6.764C159.523.513,161.5,0,164.335.063h5.773a10.344,10.344,0,0,1,3.6.193,4.515,4.515,0,0,1,2.579,1.352,4.926,4.926,0,0,1,1.016,2,13.785,13.785,0,0,1,.4,3.479v1.16h-5.22Z" transform="translate(-73.526 0.013)" fill="#777"/>
      <path id="Path_6" data-name="Path 6" d="M191.657,22.387a33.668,33.668,0,0,1-3.849-.193,6.077,6.077,0,0,1-2.684-1.16,5.675,5.675,0,0,1-1.317-2.641,10.462,10.462,0,0,1-.4-3.8v-5.8a15.8,15.8,0,0,1,.254-4.316,4.674,4.674,0,0,1,1.418-2.512A5.8,5.8,0,0,1,187.757.613a10.24,10.24,0,0,1,3.849-.322h6.181a10.328,10.328,0,0,1,3.849.322,4.823,4.823,0,0,1,3.9,3.869,12.159,12.159,0,0,1,.5,3.993V14.4a13.233,13.233,0,0,1-.506,4,5.675,5.675,0,0,1-1.317,2.641,4.857,4.857,0,0,1-2.684.966,20.288,20.288,0,0,1-3.748.322h-6.128Zm1.418-5.153h3.241a5.561,5.561,0,0,0,3.495-.837c.76-.579,1.118-1.739,1.118-3.479V9.954c0-1.739-.354-2.9-1.118-3.479a4.922,4.922,0,0,0-3.495-.644h-3.241a5.384,5.384,0,0,0-3.6.644c-.709.579-1.013,1.739-.911,3.611V13.05a3.632,3.632,0,0,0,1.064,3.285,5.172,5.172,0,0,0,3.444.9Z" transform="translate(-77.297 -0.021)" fill="#777"/>
      <path id="Path_7" data-name="Path 7" d="M225.334.746Q228.9.553,230.651,2.1q1.519,1.643,1.519,5.8a10.9,10.9,0,0,1-.608,4,3.546,3.546,0,0,1-2.076,2,3.636,3.636,0,0,1,1.977,1.352,7.656,7.656,0,0,1,.76,2.837V22.4h-5.267V19.238a2.382,2.382,0,0,0-.659-2,1.926,1.926,0,0,0-1.671-.322h-7.6v5.476h-5.168V.746Zm-.254,5.347h-8.1v5.282h8.1a1.448,1.448,0,0,0,1.418-.644,4.472,4.472,0,0,0,.4-2.126,4.079,4.079,0,0,0-.4-2c-.253-.386-.708-.515-1.418-.515Z" transform="translate(-81.295 -0.09)" fill="#777"/>
      <path id="Path_8" data-name="Path 8" d="M250.409.738a5.771,5.771,0,0,1,2.579.193,5.232,5.232,0,0,1,1.924.644,4.519,4.519,0,0,1,1.824,2.641,12.538,12.538,0,0,1,.659,4.638c0,2.9-.4,4.9-1.165,6.12a4.065,4.065,0,0,1-3.849,2h-9.67v5.282h-5.165V.738Zm-.152,5.347h-7.6v5.6h7.6a1.461,1.461,0,0,0,1.418-.837,3.451,3.451,0,0,0,.506-2.126,3.149,3.149,0,0,0-.506-2,1.666,1.666,0,0,0-1.418-.644Z" transform="translate(-84.897 -0.083)" fill="#777"/>
      <path id="Path_9" data-name="Path 9" d="M267.24,24.852h-4.659v-6.12h4.659Z" transform="translate(-88.407 -2.615)" fill="#777"/>
    </g>
    <g id="Group_360" data-name="Group 360" transform="translate(0 -0.002)">
      <rect id="Rectangle_219" data-name="Rectangle 219" width="42.805" height="42.805" transform="translate(0 0.001)" fill="#fff"/>
      <path id="Path_10" data-name="Path 10" d="M42.989,3.224V0H39.761L18.267,20.813H0L20.418,0H0V42.989H42.989V20.42L21.494,42.989V24.718Z" fill="#1e88e5"/>
      <g id="Group_11" data-name="Group 11" transform="translate(1.075 24.718)">
        <rect id="Rectangle_2" data-name="Rectangle 2" width="1.612" height="16.121" transform="translate(5.91)" fill="#fff"/>
        <path id="Union_3" data-name="Union 3" d="M2.862,44.871V37.348h0L1.25,28.75H2.862l1.075,5.732L5.012,28.75H6.086l-1.613,8.6v7.523Z" transform="translate(-1.25 -28.75)" fill="#fff"/>
        <path id="Union_1" data-name="Union 1" d="M21.347,44.871V37.885H19.736V36.273h1.611V28.75H22.96V44.871Zm-3.223,0V28.75h1.612V44.871Z" transform="translate(-3.616 -28.75)" fill="#fff"/>
        <path id="Union_2" data-name="Union 2" d="M11.249,44.871V28.75h4.836v1.612H12.861v12.9h3.224v1.612Zm1.612-6.987V36.273h3.224v1.611Z" transform="translate(-2.652 -28.75)" fill="#fff"/>
      </g>
    </g>
    <g id="Group_442" data-name="Group 442" transform="translate(52.542 30.308)">
      <path id="Path_15443" data-name="Path 15443" d="M61.111,43.818v-8.4h.971v8.4Z" transform="translate(-61.111 -35.276)" fill="#777"/>
      <path id="Path_15444" data-name="Path 15444" d="M65.169,44.173V38.089h.81v.865a1.855,1.855,0,0,1,1.691-1,1.967,1.967,0,0,1,.883.2,1.423,1.423,0,0,1,.6.518,2.153,2.153,0,0,1,.28.763,6.725,6.725,0,0,1,.05,1v3.741h-.9v-3.7a3.171,3.171,0,0,0-.1-.942.971.971,0,0,0-.373-.5,1.073,1.073,0,0,0-.628-.186,1.354,1.354,0,0,0-.993.419,2.259,2.259,0,0,0-.418,1.586v3.323Z" transform="translate(-61.68 -35.631)" fill="#777"/>
      <path id="Path_15445" data-name="Path 15445" d="M74.755,42.927l.13.91a2.94,2.94,0,0,1-.68.092,1.378,1.378,0,0,1-.761-.178.95.95,0,0,1-.38-.467,4.209,4.209,0,0,1-.11-1.217v-3.5h-.66v-.8h.66V36.258l.9-.618v2.124h.9v.8h-.9v3.558a2.049,2.049,0,0,0,.047.567.418.418,0,0,0,.155.2.536.536,0,0,0,.308.074,2.562,2.562,0,0,0,.391-.036Z" transform="translate(-62.679 -35.307)" fill="#777"/>
      <path id="Path_15446" data-name="Path 15446" d="M80.84,42.214l.931.132a2.66,2.66,0,0,1-.816,1.45,2.241,2.241,0,0,1-1.52.516,2.282,2.282,0,0,1-1.849-.822,3.515,3.515,0,0,1-.683-2.307,3.679,3.679,0,0,1,.69-2.382,2.2,2.2,0,0,1,1.791-.849,2.139,2.139,0,0,1,1.741.831A3.61,3.61,0,0,1,81.8,41.12c0,.061,0,.152-.005.275H77.833a2.537,2.537,0,0,0,.5,1.535,1.389,1.389,0,0,0,1.111.533,1.259,1.259,0,0,0,.844-.3,2.007,2.007,0,0,0,.552-.949Zm-2.957-1.667H80.85a2.254,2.254,0,0,0-.34-1.151,1.319,1.319,0,0,0-1.116-.6,1.342,1.342,0,0,0-1.043.475A2.032,2.032,0,0,0,77.883,40.547Z" transform="translate(-63.325 -35.631)" fill="#777"/>
      <path id="Path_15447" data-name="Path 15447" d="M84.732,44.676l.875.15a1,1,0,0,0,.305.676,1.364,1.364,0,0,0,.916.286,1.459,1.459,0,0,0,.966-.286,1.44,1.44,0,0,0,.46-.8,7.534,7.534,0,0,0,.065-1.323,1.773,1.773,0,0,1-1.471.8,1.918,1.918,0,0,1-1.7-.905,3.837,3.837,0,0,1-.6-2.172,4.57,4.57,0,0,1,.275-1.607,2.488,2.488,0,0,1,.8-1.137,1.962,1.962,0,0,1,1.229-.4,1.83,1.83,0,0,1,1.55.871V38.1h.831v5.259a5.665,5.665,0,0,1-.253,2.014,2.015,2.015,0,0,1-.8.936,2.482,2.482,0,0,1-1.347.345,2.314,2.314,0,0,1-1.536-.491A1.762,1.762,0,0,1,84.732,44.676Zm.745-3.655a2.927,2.927,0,0,0,.415,1.748,1.263,1.263,0,0,0,2.082,0,2.823,2.823,0,0,0,.42-1.716,2.753,2.753,0,0,0-.432-1.684,1.281,1.281,0,0,0-1.044-.567,1.245,1.245,0,0,0-1.021.559,2.741,2.741,0,0,0-.421,1.66Z" transform="translate(-64.398 -35.631)" fill="#777"/>
      <path id="Path_15448" data-name="Path 15448" d="M92.641,44.173V38.089h.81v.923a2.512,2.512,0,0,1,.573-.855.911.911,0,0,1,.577-.206,1.6,1.6,0,0,1,.926.333l-.31.956a1.173,1.173,0,0,0-.66-.224.791.791,0,0,0-.53.2,1.118,1.118,0,0,0-.335.564,4.569,4.569,0,0,0-.15,1.2v3.186Z" transform="translate(-65.532 -35.631)" fill="#777"/>
      <path id="Path_15449" data-name="Path 15449" d="M97.7,36.606V35.42h.9v1.186Zm0,7.213V37.734h.9v6.085Z" transform="translate(-66.242 -35.276)" fill="#777"/>
      <path id="Path_15450" data-name="Path 15450" d="M103.3,42.927l.13.91a2.946,2.946,0,0,1-.68.092,1.378,1.378,0,0,1-.761-.178.95.95,0,0,1-.38-.467,4.178,4.178,0,0,1-.11-1.217v-3.5h-.66v-.8h.66V36.258l.9-.618v2.124h.906v.8H102.4v3.558a2.036,2.036,0,0,0,.048.567.418.418,0,0,0,.155.2.536.536,0,0,0,.308.074A2.572,2.572,0,0,0,103.3,42.927Z" transform="translate(-66.682 -35.307)" fill="#777"/>
      <path id="Path_15451" data-name="Path 15451" d="M105.673,46.538l-.1-.968a1.8,1.8,0,0,0,.515.092.886.886,0,0,0,.481-.115.873.873,0,0,0,.295-.321,5.412,5.412,0,0,0,.275-.768c.017-.057.043-.141.08-.252l-2.016-6.1h.971l1.106,3.523q.215.671.385,1.41.155-.711.371-1.388l1.135-3.546h.9l-2.021,6.2a13.02,13.02,0,0,1-.506,1.38,1.977,1.977,0,0,1-.55.748,1.182,1.182,0,0,1-.74.238,1.6,1.6,0,0,1-.581-.128Z" transform="translate(-67.294 -35.654)" fill="#777"/>
      <path id="Path_15452" data-name="Path 15452" d="M117.929,40.368V39.093h1.114v1.275Z" transform="translate(-69.078 -35.791)" fill="#777"/>
      <path id="Path_15453" data-name="Path 15453" d="M127.2,43.818v-8.4h2.767a5.793,5.793,0,0,1,1.115.08,2.053,2.053,0,0,1,.9.392,2.007,2.007,0,0,1,.588.811,2.882,2.882,0,0,1,.223,1.145,2.811,2.811,0,0,1-.595,1.814,2.631,2.631,0,0,1-2.151.742h-1.881v3.414Zm.971-4.406h1.9a1.835,1.835,0,0,0,1.336-.4,1.544,1.544,0,0,0,.395-1.13,1.682,1.682,0,0,0-.232-.9,1.1,1.1,0,0,0-.613-.5,3.661,3.661,0,0,0-.905-.075h-1.876Z" transform="translate(-70.379 -35.276)" fill="#777"/>
      <path id="Path_15454" data-name="Path 15454" d="M136.08,44.173V38.089h.809v.923a2.525,2.525,0,0,1,.573-.855.915.915,0,0,1,.578-.206,1.6,1.6,0,0,1,.926.333l-.31.956a1.173,1.173,0,0,0-.659-.224.791.791,0,0,0-.531.2,1.118,1.118,0,0,0-.335.564,4.607,4.607,0,0,0-.15,1.2v3.186Z" transform="translate(-71.624 -35.631)" fill="#777"/>
      <path id="Path_15455" data-name="Path 15455" d="M140.742,41.13a3.4,3.4,0,0,1,.82-2.5,2.3,2.3,0,0,1,1.671-.676,2.245,2.245,0,0,1,1.792.822,3.414,3.414,0,0,1,.7,2.272,4.52,4.52,0,0,1-.308,1.847,2.372,2.372,0,0,1-2.179,1.419,2.243,2.243,0,0,1-1.8-.819,3.58,3.58,0,0,1-.691-2.365Zm.925,0a2.853,2.853,0,0,0,.446,1.75,1.364,1.364,0,0,0,2.235,0,2.925,2.925,0,0,0,.445-1.782,2.77,2.77,0,0,0-.447-1.71,1.365,1.365,0,0,0-2.234,0A2.84,2.84,0,0,0,141.667,41.13Z" transform="translate(-72.277 -35.631)" fill="#777"/>
      <path id="Path_15456" data-name="Path 15456" d="M148.953,43.795V38.512h-.8v-.8h.8v-.647a3.216,3.216,0,0,1,.1-.91,1.3,1.3,0,0,1,.458-.65,1.487,1.487,0,0,1,.917-.249,3.873,3.873,0,0,1,.841.1l-.136.9a2.674,2.674,0,0,0-.53-.057.725.725,0,0,0-.58.2,1.2,1.2,0,0,0-.17.75v.561h1.036v.8h-1.036v5.282Z" transform="translate(-73.317 -35.253)" fill="#777"/>
      <path id="Path_15457" data-name="Path 15457" d="M156.8,42.214l.93.132a2.654,2.654,0,0,1-.815,1.45,2.243,2.243,0,0,1-1.52.516,2.281,2.281,0,0,1-1.849-.822,3.515,3.515,0,0,1-.683-2.307,3.679,3.679,0,0,1,.69-2.382,2.2,2.2,0,0,1,1.791-.849,2.141,2.141,0,0,1,1.741.831,3.61,3.61,0,0,1,.675,2.337c0,.061,0,.152,0,.275H153.8a2.543,2.543,0,0,0,.5,1.535,1.392,1.392,0,0,0,1.111.533,1.263,1.263,0,0,0,.846-.3A2.013,2.013,0,0,0,156.8,42.214Zm-2.956-1.667h2.966a2.271,2.271,0,0,0-.34-1.151,1.32,1.32,0,0,0-1.116-.6,1.341,1.341,0,0,0-1.043.475,2.022,2.022,0,0,0-.464,1.276Z" transform="translate(-73.978 -35.631)" fill="#777"/>
      <path id="Path_15458" data-name="Path 15458" d="M160.5,42.356l.891-.16a1.5,1.5,0,0,0,.418.939,1.334,1.334,0,0,0,.959.327,1.279,1.279,0,0,0,.92-.29.91.91,0,0,0,.3-.678.651.651,0,0,0-.265-.549,3.587,3.587,0,0,0-.921-.35,7.591,7.591,0,0,1-1.373-.5,1.4,1.4,0,0,1-.581-.579,1.711,1.711,0,0,1-.2-.816,1.753,1.753,0,0,1,.162-.753,1.632,1.632,0,0,1,.443-.576,1.764,1.764,0,0,1,.573-.3,2.392,2.392,0,0,1,.778-.124,2.732,2.732,0,0,1,1.1.206,1.52,1.52,0,0,1,.7.559,2.37,2.37,0,0,1,.31.943l-.88.137a1.051,1.051,0,0,0-1.162-1,1.323,1.323,0,0,0-.885.235.713.713,0,0,0-.265.55.628.628,0,0,0,.11.361.8.8,0,0,0,.345.274c.089.039.355.126.8.263a10.115,10.115,0,0,1,1.333.479,1.407,1.407,0,0,1,.593.542,1.671,1.671,0,0,1,.216.881,1.918,1.918,0,0,1-.263.972,1.777,1.777,0,0,1-.758.705,2.457,2.457,0,0,1-1.12.249,2.271,2.271,0,0,1-1.578-.494,2.4,2.4,0,0,1-.7-1.453Z" transform="translate(-75.048 -35.631)" fill="#777"/>
      <path id="Path_15459" data-name="Path 15459" d="M167.527,42.356l.891-.16a1.5,1.5,0,0,0,.418.939,1.336,1.336,0,0,0,.959.327,1.278,1.278,0,0,0,.92-.29.91.91,0,0,0,.3-.678.651.651,0,0,0-.265-.549,3.586,3.586,0,0,0-.921-.35,7.617,7.617,0,0,1-1.373-.5,1.394,1.394,0,0,1-.58-.579,1.7,1.7,0,0,1-.2-.816,1.754,1.754,0,0,1,.163-.753,1.63,1.63,0,0,1,.442-.576,1.764,1.764,0,0,1,.573-.3,2.4,2.4,0,0,1,.779-.124,2.728,2.728,0,0,1,1.1.206,1.516,1.516,0,0,1,.7.559,2.371,2.371,0,0,1,.31.943l-.88.137a1.05,1.05,0,0,0-1.161-1,1.326,1.326,0,0,0-.886.235.713.713,0,0,0-.265.55.628.628,0,0,0,.11.361.8.8,0,0,0,.345.274c.09.039.355.126.8.263a10.187,10.187,0,0,1,1.333.479,1.4,1.4,0,0,1,.592.542,1.671,1.671,0,0,1,.216.881,1.909,1.909,0,0,1-.263.972,1.78,1.78,0,0,1-.757.7,2.463,2.463,0,0,1-1.121.249,2.271,2.271,0,0,1-1.578-.494,2.4,2.4,0,0,1-.7-1.453Z" transform="translate(-76.033 -35.631)" fill="#777"/>
      <path id="Path_15460" data-name="Path 15460" d="M174.982,36.606V35.42h.9v1.186Zm0,7.213V37.734h.9v6.085Z" transform="translate(-77.079 -35.276)" fill="#777"/>
      <path id="Path_15461" data-name="Path 15461" d="M178.307,41.13a3.394,3.394,0,0,1,.82-2.5,2.292,2.292,0,0,1,1.671-.676,2.244,2.244,0,0,1,1.792.822,3.414,3.414,0,0,1,.7,2.272,4.5,4.5,0,0,1-.309,1.847,2.372,2.372,0,0,1-2.179,1.419A2.245,2.245,0,0,1,179,43.5,3.58,3.58,0,0,1,178.307,41.13Zm.925,0a2.859,2.859,0,0,0,.445,1.75,1.364,1.364,0,0,0,2.236,0,2.925,2.925,0,0,0,.445-1.782,2.764,2.764,0,0,0-.448-1.71,1.365,1.365,0,0,0-2.234,0,2.846,2.846,0,0,0-.444,1.742Z" transform="translate(-77.545 -35.631)" fill="#777"/>
      <path id="Path_15462" data-name="Path 15462" d="M186.4,44.173V38.089h.812v.865a1.853,1.853,0,0,1,1.691-1,1.965,1.965,0,0,1,.882.2,1.418,1.418,0,0,1,.6.518,2.152,2.152,0,0,1,.28.763,6.721,6.721,0,0,1,.05,1v3.741h-.9v-3.7a3.171,3.171,0,0,0-.1-.942.976.976,0,0,0-.373-.5,1.075,1.075,0,0,0-.628-.186,1.354,1.354,0,0,0-.993.419,2.259,2.259,0,0,0-.418,1.586v3.323Z" transform="translate(-78.679 -35.631)" fill="#777"/>
      <path id="Path_15463" data-name="Path 15463" d="M199.2,40.368V39.093h1.114v1.275Z" transform="translate(-80.475 -35.791)" fill="#777"/>
      <path id="Path_15464" data-name="Path 15464" d="M208.5,43.818v-8.4h5.3v.99h-4.332V38.98h4.057v.986h-4.057v2.859h4.5v.991Z" transform="translate(-81.778 -35.276)" fill="#777"/>
      <path id="Path_15465" data-name="Path 15465" d="M217.48,43.795V38.512h-.8v-.8h.8v-.647a3.177,3.177,0,0,1,.1-.91,1.294,1.294,0,0,1,.457-.65,1.488,1.488,0,0,1,.917-.249,3.873,3.873,0,0,1,.841.1l-.135.9a2.675,2.675,0,0,0-.53-.057.721.721,0,0,0-.579.2,1.2,1.2,0,0,0-.171.75v.561h1.036v.8H218.38v5.282Z" transform="translate(-82.927 -35.253)" fill="#777"/>
      <path id="Path_15466" data-name="Path 15466" d="M221.649,43.795V38.512h-.8v-.8h.8v-.647a3.177,3.177,0,0,1,.1-.91,1.3,1.3,0,0,1,.457-.65,1.488,1.488,0,0,1,.917-.249,3.873,3.873,0,0,1,.841.1l-.135.9a2.675,2.675,0,0,0-.53-.057.721.721,0,0,0-.579.2,1.2,1.2,0,0,0-.171.75v.561h1.036v.8h-1.036v5.282Z" transform="translate(-83.511 -35.253)" fill="#777"/>
      <path id="Path_15467" data-name="Path 15467" d="M225.917,36.606V35.42h.9v1.186Zm0,7.213V37.734h.9v6.085Z" transform="translate(-84.221 -35.276)" fill="#777"/>
      <path id="Path_15468" data-name="Path 15468" d="M233.054,41.945l.885.132a2.764,2.764,0,0,1-.743,1.641,2,2,0,0,1-1.468.593,2.146,2.146,0,0,1-1.754-.818,3.626,3.626,0,0,1-.662-2.339,4.772,4.772,0,0,1,.285-1.724,2.2,2.2,0,0,1,.868-1.109,2.329,2.329,0,0,1,1.269-.37,2.021,2.021,0,0,1,1.415.5,2.391,2.391,0,0,1,.706,1.424l-.876.155a1.737,1.737,0,0,0-.442-.922,1.062,1.062,0,0,0-.769-.31,1.328,1.328,0,0,0-1.106.558,2.94,2.94,0,0,0-.425,1.768,3.038,3.038,0,0,0,.41,1.781,1.271,1.271,0,0,0,1.07.555,1.174,1.174,0,0,0,.886-.372A1.976,1.976,0,0,0,233.054,41.945Z" transform="translate(-84.697 -35.631)" fill="#777"/>
      <path id="Path_15469" data-name="Path 15469" d="M236.667,36.606V35.42h.9v1.186Zm0,7.213V37.734h.9v6.085Z" transform="translate(-85.729 -35.276)" fill="#777"/>
      <path id="Path_15470" data-name="Path 15470" d="M243.97,42.214l.93.132a2.654,2.654,0,0,1-.815,1.45,2.243,2.243,0,0,1-1.52.516,2.281,2.281,0,0,1-1.849-.822,3.515,3.515,0,0,1-.683-2.307,3.679,3.679,0,0,1,.69-2.382,2.2,2.2,0,0,1,1.791-.849,2.141,2.141,0,0,1,1.741.831,3.61,3.61,0,0,1,.675,2.337c0,.061,0,.152,0,.275h-3.963a2.543,2.543,0,0,0,.5,1.535,1.392,1.392,0,0,0,1.111.533,1.263,1.263,0,0,0,.846-.3,2.013,2.013,0,0,0,.546-.949Zm-2.956-1.667h2.966a2.271,2.271,0,0,0-.34-1.151,1.32,1.32,0,0,0-1.116-.6,1.341,1.341,0,0,0-1.043.475,2.022,2.022,0,0,0-.467,1.276Z" transform="translate(-86.201 -35.631)" fill="#777"/>
      <path id="Path_15471" data-name="Path 15471" d="M248.082,44.173V38.089h.811v.865a1.855,1.855,0,0,1,1.691-1,1.972,1.972,0,0,1,.883.2,1.428,1.428,0,0,1,.6.518,2.169,2.169,0,0,1,.28.763,6.721,6.721,0,0,1,.05,1v3.741h-.9v-3.7a3.171,3.171,0,0,0-.1-.942.976.976,0,0,0-.373-.5,1.075,1.075,0,0,0-.628-.186,1.354,1.354,0,0,0-.994.419,2.264,2.264,0,0,0-.417,1.586v3.323Z" transform="translate(-87.33 -35.631)" fill="#777"/>
      <path id="Path_15472" data-name="Path 15472" d="M259.2,41.945l.886.132a2.77,2.77,0,0,1-.744,1.641,2,2,0,0,1-1.468.593,2.147,2.147,0,0,1-1.754-.818,3.632,3.632,0,0,1-.662-2.339,4.772,4.772,0,0,1,.285-1.724,2.207,2.207,0,0,1,.868-1.109,2.326,2.326,0,0,1,1.268-.37,2.025,2.025,0,0,1,1.416.5A2.39,2.39,0,0,1,260,39.875l-.875.155a1.738,1.738,0,0,0-.443-.922,1.06,1.06,0,0,0-.769-.31,1.328,1.328,0,0,0-1.106.558,2.94,2.94,0,0,0-.425,1.768,3.031,3.031,0,0,0,.411,1.781,1.268,1.268,0,0,0,1.07.555,1.17,1.17,0,0,0,.885-.372A1.976,1.976,0,0,0,259.2,41.945Z" transform="translate(-88.365 -35.631)" fill="#777"/>
      <path id="Path_15473" data-name="Path 15473" d="M262.69,46.538l-.1-.968a1.8,1.8,0,0,0,.515.092.8.8,0,0,0,.776-.436,5.6,5.6,0,0,0,.276-.768c.016-.057.042-.141.079-.252l-2.015-6.1h.971l1.1,3.523q.215.671.385,1.41.155-.711.371-1.388l1.136-3.546h.9l-2.018,6.2a13.02,13.02,0,0,1-.506,1.38,1.984,1.984,0,0,1-.549.748,1.188,1.188,0,0,1-.741.238,1.593,1.593,0,0,1-.58-.128Z" transform="translate(-89.312 -35.654)" fill="#777"/>
    </g>
  </g>
</svg>
