<svg xmlns="http://www.w3.org/2000/svg" viewBox="0 0 40 40">
  <defs>
    <style>
      .cls-1 {
        fill: #1e88e5;
      }
    </style>
  </defs>
  <g id="Group_34" data-name="Group 34" transform="translate(0 -0.3)">
    <g id="Group_32" data-name="Group 32">
      <path id="Path_21" data-name="Path 21" class="cls-1" d="M34,20.3a14,14,0,1,1-14-14,13.842,13.842,0,0,1,7,1.9l.5-.9a15.311,15.311,0,0,0-7.5-2,15.109,15.109,0,0,0-15,15,15.109,15.109,0,0,0,15,15,15.109,15.109,0,0,0,15-15Z"/>
    </g>
    <path id="Path_22" data-name="Path 22" class="cls-1" d="M20,.3a20,20,0,1,0,20,20A20.059,20.059,0,0,0,20,.3Zm0,37a17,17,0,1,1,17-17A16.986,16.986,0,0,1,20,37.3Z"/>
    <g id="Group_33" data-name="Group 33">
      <path id="Path_23" data-name="Path 23" class="cls-1" d="M20,12.3a8,8,0,1,0,8,8A8.024,8.024,0,0,0,20,12.3Zm0,13a5,5,0,1,1,5-5A4.951,4.951,0,0,1,20,25.3Z"/>
    </g>
    <path id="Path_24" data-name="Path 24" class="cls-1" d="M20,8.3a12,12,0,1,0,12,12A12.035,12.035,0,0,0,20,8.3Zm0,23a11,11,0,1,1,11-11A10.968,10.968,0,0,1,20,31.3Z"/>
  </g>
</svg>
